
 
http://www.imdb.com/title/tt1905041/



Plot: Agent Luke Hobbs enlists Dominic Toretto and his team to bring down former Special Ops soldier Owen Shaw, leader of a unit specializing in vehicular warfare. 



Director:
 Justin Lin 

Writers:
 Chris Morgan (screenplay), Gary Scott Thompson (characters) 

Stars:
 Dwayne Johnson, Vin Diesel, Paul Walker

Genres:
  Action |  Crime |  Thriller 

Country:
 USA 

Language:
 English 



SOURCE=TheCod3r THANKS:)
 WORK DONE:VIDEO NEEDING ROTATING BAD AND WE ALL KNOW THE SOURCE HAD ALOT OF MOVEMENT
 SO WE ROTATED,CROPPED TOP BY 32,LEFT BY 20,RIGHT BY 12 AND BOTTOM BY 40 AND YES THERE IS STILL SOME MOVEMENT AND A FEW BOARDERS FROM TIME TO TIME!!!
 NEXT WE RESIZED AND ADDED SOME BRIGHTNESS AND LOWERED THE CONTRAST TO BRING OUT A LITTLE MORE DETAIL AND ADDED A LITTLE SHARPNESS BLA BLA BLA...
 FINALLY REACHING THE END WE ADDED A MSU DEBLOCKER AND VIDEO DENOISE FILTER AND LET HER RUN FOR ABOUT 8 HOURS THE END :lol:
 2 SAMPLES INCLUDED SO PLEASE CHECK THEM FIRST!!!
 THERE ARE A BUNCH OF ENCODES OF THIS TORRENT SO TAKE YOUR PICK:wink:
 IF YOU DON'T HAVE ANYTHING CONSTRUCTIVE TO SAY PLEASE DO NOT BOTHER TO COMMENT.

 AS ALWAYS "THANKS FOR STOPPING BY!"
 jtr/INFERNO 
   

General
 Complete name                            : FAF 6 2013-INF
 Format                                   : AVI
 Format/Info                              : Audio Video Interleave
 File size                                : 1.30 GiB
 Duration                                 : 2h 0mn
 Overall bit rate                         : 1 547 Kbps
 Writing application                      : AVI-Mux GUI 1.17.8.3, 
 Writing library                          : VirtualDub build 32842

 Video
 ID                                       : 0
 Format                                   : MPEG-4 Visual
 Format profile                           : Advanced Simple@L5
 Format settings, BVOP                    : 2
 Format settings, QPel                    : No
 Format settings, GMC                     : No warppoints
 Format settings, Matrix                  : Default (H.263)
 Muxing mode                              : Packed bitstream
 Codec ID                                 : XVID
 Codec ID/Hint                            : XviD
 Duration                                 : 2h 0mn
 Bit rate                                 : 1 399 Kbps
 Width                                    : 608 pixels
 Height                                   : 272 pixels
 Display aspect ratio                     : 2.25:1
 Frame rate                               : 50.000 fps
 Color space                              : YUV
 Chroma subsampling                       : 4:2:0
 Bit depth                                : 8 bits
 Scan type                                : Progressive
 Compression mode                         : Lossy
 Bits/(Pixel*Frame)                       : 0.169
 Stream size                              : 1.18 GiB (90%)
 Writing library                          : XviD 64

 Audio
 ID                                       : 1
 Format                                   : MPEG Audio
 Format version                           : Version 1
 Format profile                           : Layer 3
 Mode                                     : Joint stereo
 Mode extension                           : MS Stereo
 Codec ID                                 : 55
 Codec ID/Hint                            : MP3
 Duration                                 : 2h 0mn
 Bit rate mode                            : Constant
 Bit rate                                 : 128 Kbps
 Channel(s)                               : 2 channels
 Sampling rate                            : 48.0 KHz
 Compression mode                         : Lossy
 Stream size                              : 111 MiB (8%)
 Alignment                                : Split accross interleaves
 Interleave, duration                     : 20 ms (1.00 video frame)
 Interleave, preload duration             : 500 ms





    	http://addpix.net/viewer.php?file=06900233079028590497.jpg
    	http://addpix.net/viewer.php?file=50943098560022000981.jpg
    	http://addpix.net/viewer.php?file=64704529731414732481.jpg
    	http://addpix.net/viewer.php?file=47614977650755473184.jpg
    	http://addpix.net/viewer.php?file=81239857038774690022.jpg
    	http://addpix.net/viewer.php?file=03796891014283423670.jpg